<svg viewBox="0 0 100 100" fill="currentColor" xmlns="http://www.w3.org/2000/svg">
  <path d="M 47.8,0.1 L 53.2,0.2 L 59.3,2.1 L 65.0,6.0 L 70.1,12.3 L 76.8,13.8 L 81.7,16.5 L 86.4,21.8 L 89.1,29.2 L 96.0,34.4 L 99.3,40.2 L 99.9,45.8 L 98.8,50.7 L 96.1,55.1 L 91.9,58.5 L 85.6,60.3 L 77.6,59.2 L 71.8,62.2 L 67.2,63.3 L 62.6,63.1 L 58.4,62.0 L 57.5,62.7 L 57.5,76.3 L 58.9,81.9 L 61.7,86.0 L 65.6,89.6 L 77.7,96.0 L 78.1,98.4 L 76.0,99.8 L 62.7,97.8 L 50.9,97.2 L 38.6,97.7 L 24.5,99.8 L 22.8,99.4 L 21.7,97.7 L 22.4,95.9 L 34.2,89.7 L 38.2,86.1 L 40.9,82.3 L 42.5,76.5 L 42.5,62.6 L 41.5,62.0 L 37.3,63.1 L 32.9,63.3 L 28.1,62.1 L 22.6,59.2 L 15.4,60.4 L 10.8,59.7 L 7.3,58.1 L 4.2,55.5 L 2.0,52.3 L 0.5,48.8 L 0.1,43.0 L 1.8,37.4 L 5.2,33.1 L 10.8,29.3 L 13.1,22.8 L 16.4,18.2 L 22.2,14.2 L 30.0,12.2 L 34.3,6.7 L 39.1,2.9 L 43.2,1.1 L 47.7,0.1 Z" />
</svg>