<svg xmlns="http://www.w3.org/2000/svg" viewBox="0 0 64 64" role="img" aria-label="CanopyChat oak tree logo">
  <defs>
    <linearGradient id="bg" x1="0" y1="0" x2="0" y2="1">
      <stop offset="0" stop-color="#4a7c4a"/>
      <stop offset="1" stop-color="#2f5233"/>
    </linearGradient>
  </defs>
  <rect width="64" height="64" rx="15" fill="url(#bg)"/>
  <g fill="#fff4df">
    <circle cx="32" cy="19" r="11"/>
    <circle cx="21" cy="25" r="8.5"/>
    <circle cx="43" cy="25" r="8.5"/>
    <circle cx="25" cy="15" r="7"/>
    <circle cx="39" cy="15" r="7"/>
    <circle cx="32" cy="27" r="9"/>
    <path d="M30.2 34 h3.6 l0.9 10.2 c2.4 -0.6 4.6 -2 6.2 -4.2 l2.1 1.7 c-2.1 2.9 -5 4.7 -8 5.4 l0.3 3.4 c2.9 0.4 5.6 1.2 5.6 1.2 v2.3 h-17.8 v-2.3 s2.7 -0.8 5.6 -1.2 l0.3 -3.4 c-3 -0.7 -5.9 -2.5 -8 -5.4 l2.1 -1.7 c1.6 2.2 3.8 3.6 6.2 4.2 z"/>
  </g>
</svg>
